PathFileType	4	(X/Y/Z)	Run_500 02
DataRate	CameraRate	NumFrames	NumMarkers	Units	OrigDataRate	OrigDataStartFrame	OrigNumFrames
120	120	6	42	mm	120	118	128
Frame#	Time	LASI			RASI			LPSI			RPSI			RTH1			RTH2			RTH3			LTH1			LTH2			LTH3			RTB1			RTB2			LTB1			LTB2			LTB3			RCAL			RTOE			RMT5			LCAL			LTOE			LMT5			LACR			RACR			CLAV			C7			RUA1			RUA2			RUA3			RLEL			RMEL			LUA1			LUA2			LUA3			LLEL			LMEL			RFAsuperior			RFAradius			RFAulna			LFAsuperior			LFAradius			LFAulna			RTB3		
		X1	Y1	Z1	X2	Y2	Z2	X3	Y3	Z3	X4	Y4	Z4	X5	Y5	Z5	X6	Y6	Z6	X7	Y7	Z7	X8	Y8	Z8	X9	Y9	Z9	X10	Y10	Z10	X11	Y11	Z11	X12	Y12	Z12	X13	Y13	Z13	X14	Y14	Z14	X15	Y15	Z15	X16	Y16	Z16	X17	Y17	Z17	X18	Y18	Z18	X19	Y19	Z19	X20	Y20	Z20	X21	Y21	Z21	X22	Y22	Z22	X23	Y23	Z23	X24	Y24	Z24	X25	Y25	Z25	X26	Y26	Z26	X27	Y27	Z27	X28	Y28	Z28	X29	Y29	Z29	X30	Y30	Z30	X31	Y31	Z31	X32	Y32	Z32	X33	Y33	Z33	X34	Y34	Z34	X35	Y35	Z35	X36	Y36	Z36	X37	Y37	Z37	X38	Y38	Z38	X39	Y39	Z39	X40	Y40	Z40	X41	Y41	Z41	X42	Y42	Z42	

118	  0.983333	934.919423	1015.764274	-756.953955	899.505171	1028.289467	-494.818311	747.974853	1065.037959	-694.502477	737.192568	1067.408419	-613.763253	814.818336	867.831762	-450.672256	860.383878	753.951427	-454.411561	783.055807	644.650818	-496.413923	953.465676	830.543283	-800.142633	1080.197085	772.851191	-782.307582	1090.043543	654.460588	-762.811158	766.049205	348.851684	-584.449004	711.314837	302.604025	-521.717822	1068.478904	504.924977	-684.950317	976.429295	506.159378	-736.732448	869.682021	460.018874	-672.829385	464.871417	142.798105	-615.092965	685.804384	 66.608390	-638.469627	610.763247	 48.911982	-545.924322	702.766495	524.435034	-659.389562	760.990097	297.552219	-656.517958	718.037143	359.819553	-742.581002	949.704347	1489.335790	-795.163726	977.295275	1481.141008	-453.209178	1005.084573	1427.605523	-593.325433	884.395379	1528.989078	-610.298338	970.128240	1383.941768	-367.935414	986.570153	1297.685353	-360.423517	920.808895	1284.744688	-316.847777	942.211829	1163.781460	-248.769409	904.201300	1128.648281	-316.397566	905.331017	1414.869462	-875.520990	892.679134	1346.507726	-879.541515	797.023221	1373.104809	-882.829663	741.025491	1233.386540	-962.234102	685.988168	1234.980255	-894.227766	1046.622196	1178.619881	-284.360348	1166.315636	1191.147088	-417.570014	1190.238524	1158.180869	-356.066741	820.536444	1183.040469	-928.544003	929.159879	1112.774184	-808.534463	912.526437	1055.319604	-848.972353	659.254855	224.541795	-596.293191	
119	  0.991667	937.822690	1021.971849	-754.703534	901.195142	1029.173663	-493.071921	750.654273	1069.938505	-693.518444	740.182127	1070.805561	-612.390813	811.171149	870.908741	-451.012947	849.225935	755.127772	-454.654282	764.306400	650.485629	-496.569702	959.689355	841.264656	-800.601225	1088.032807	788.804122	-781.753716	1102.922427	670.381969	-762.331066	733.947892	353.251115	-582.593028	677.256862	308.928552	-519.951823	1091.609264	512.759416	-684.772973	999.933937	505.558501	-735.601668	898.871837	447.412254	-671.827235	429.466549	154.773123	-612.651120	645.690366	 66.045954	-637.677763	569.793308	 50.469331	-546.539637	725.885021	492.746137	-655.653231	810.252436	273.885911	-658.348850	759.328133	332.740151	-742.896667	944.574523	1496.646880	-795.436101	979.580775	1488.552460	-455.384989	1005.619202	1434.418522	-595.640202	883.669767	1533.491553	-609.666337	975.939925	1391.349975	-370.942715	994.851277	1305.492782	-364.719905	931.166151	1291.377923	-318.201354	955.768347	1169.700632	-252.779453	917.396378	1134.404444	-320.461858	897.364097	1426.048963	-875.537779	885.058639	1357.838139	-881.895752	789.441269	1384.802017	-878.930954	729.425099	1247.151953	-960.091818	677.172893	1248.674918	-890.998989	1057.619457	1191.692547	-291.845442	1170.781005	1214.605131	-429.135327	1198.970241	1182.067357	-369.410453	809.740748	1197.051737	-928.311548	920.012937	1126.090940	-810.397948	903.265093	1068.742934	-851.154878	623.814262	231.352021	-594.053326	
120	  1.000000	941.116270	1028.375462	-752.884462	904.440072	1030.498227	-492.045237	753.981284	1075.126154	-692.474675	743.789109	1074.412858	-610.836095	809.025509	874.619734	-451.287581	838.914526	757.608746	-455.280723	746.742292	657.986300	-496.447618	965.630863	851.702030	-800.676260	1094.939818	804.239049	-780.914408	1113.861397	685.725529	-762.469533	703.043657	360.161437	-580.384221	644.399538	317.797440	-517.767265	1113.709844	519.675074	-684.495790	1022.899062	503.713072	-734.569331	929.163383	434.425583	-670.756936	396.339212	168.461579	-610.548994	606.131333	 65.035051	-636.886460	529.745513	 52.846478	-547.068595	752.402115	459.974700	-651.475333	861.110401	252.119430	-660.056833	802.392633	306.554102	-742.697198	939.902288	1504.336659	-795.564533	981.505784	1496.619157	-457.689158	1006.116317	1441.839561	-598.013740	883.174501	1538.267520	-609.338368	981.727338	1399.432803	-374.193547	1002.601821	1314.006132	-369.207005	940.929338	1299.179542	-320.088466	968.444417	1176.647266	-256.924537	929.961476	1141.262633	-324.595475	890.150592	1437.589640	-875.010697	877.993016	1369.409088	-883.396805	782.779679	1396.684903	-874.423789	718.186119	1261.356545	-957.146975	669.190644	1262.721295	-886.886480	1067.187434	1204.949394	-299.345451	1173.024961	1237.808325	-440.206356	1205.243838	1205.426582	-382.660779	798.864535	1210.962066	-927.997250	911.567424	1139.395673	-811.772596	894.331208	1082.363335	-852.813498	590.172923	239.982269	-591.442688	
121	  1.008333	944.630195	1035.100464	-751.666604	909.280364	1032.213385	-491.911389	757.790845	1080.579184	-691.414210	748.031355	1078.285794	-609.231943	807.808655	878.678410	-451.471006	829.574831	761.288037	-456.318425	730.538768	666.906604	-495.925578	971.328877	861.553071	-800.377390	1100.944914	818.341521	-779.802740	1122.833015	700.013785	-763.238401	673.550279	369.203788	-577.962442	612.912755	328.899836	-515.267878	1134.981545	525.445941	-683.991666	1045.518976	500.411155	-733.677505	960.479780	421.061382	-669.628875	366.175890	183.551132	-608.819719	566.905784	 63.638415	-636.092344	490.603097	 56.043890	-547.258872	782.197940	426.778132	-647.288048	913.102645	232.487350	-661.262728	847.003748	281.147775	-741.713953	935.862952	1512.091653	-795.582576	983.222048	1505.029653	-460.154181	1006.456528	1449.617663	-600.446444	882.946711	1543.202131	-609.338320	987.297769	1408.104071	-377.646207	1009.813855	1323.052176	-373.676637	949.997925	1307.742105	-322.368188	980.173351	1184.395297	-261.058920	941.562772	1148.879801	-328.544663	883.769434	1449.091599	-874.047954	871.426313	1380.994868	-884.107751	776.784958	1408.539287	-869.630650	707.323477	1275.715707	-953.497596	661.713017	1276.802114	-881.820450	1075.544776	1218.226341	-306.637544	1173.301630	1260.306410	-450.688248	1209.347521	1227.978801	-395.624195	788.065282	1224.503609	-927.382116	903.837200	1152.461028	-812.837622	885.738626	1095.863695	-853.990993	558.944557	249.899711	-588.559521	
122	  1.016667	948.191023	1042.202981	-750.814378	915.264875	1034.426134	-492.471672	761.918752	1086.223237	-690.270650	752.805981	1082.485162	-607.641569	806.921306	883.047331	-451.420766	821.119571	766.044151	-457.630669	715.719325	677.069656	-495.245006	976.746909	870.974895	-800.080878	1106.109915	830.376346	-778.594666	1129.742219	712.508764	-764.158852	645.845177	380.064281	-575.667916	583.217226	341.909222	-512.806616	1155.194872	529.943485	-683.319154	1067.963855	495.601462	-732.984654	992.515429	407.503735	-668.478531	340.059415	200.009972	-607.187091	527.958349	 62.139412	-635.227601	452.322337	 60.261349	-547.001924	814.833549	393.812132	-643.689234	965.824556	215.156591	-661.520833	893.214724	256.452638	-739.896501	932.520021	1519.578441	-795.484253	984.796987	1513.446756	-462.836138	1006.611572	1457.411118	-602.862041	882.906676	1548.109435	-609.581844	992.408636	1417.159551	-381.184704	1016.485672	1332.468109	-377.910832	958.225324	1316.617593	-324.951472	990.880532	1192.702269	-265.047076	951.724969	1156.918493	-332.069392	878.251418	1460.195654	-872.810811	865.303096	1392.373720	-884.256940	771.310970	1420.201863	-864.776751	696.922158	1289.895311	-949.283023	654.504574	1290.606848	-875.912101	1082.797009	1231.456642	-313.513157	1171.882016	1281.724274	-460.485271	1211.528208	1249.491290	-408.154973	777.617470	1237.572534	-926.133734	896.828662	1165.154634	-813.777817	877.529974	1108.966769	-854.736579	530.695423	260.711932	-585.630845	
123	  1.025000	951.613916	1049.526572	-749.915243	921.734872	1037.252678	-493.306833	766.234546	1091.896192	-688.910744	757.882672	1087.020768	-606.000485	806.108980	887.902533	-450.921596	813.404885	771.721099	-458.880019	702.370444	688.402781	-494.834666	981.668077	880.275232	-800.261368	1110.475449	840.001065	-777.618293	1134.465081	722.330101	-764.294279	620.472240	392.543415	-573.938964	556.065268	356.481956	-510.856285	1173.943285	533.120919	-682.603539	1090.313472	489.433819	-732.526677	1024.858057	394.046866	-667.352563	318.971018	218.056673	-605.210499	489.704128	 61.305343	-634.096282	415.139977	 66.168494	-546.331893	849.714612	361.592028	-641.293217	1018.853957	200.289039	-660.430056	941.224736	232.663812	-737.441241	929.821039	1526.516418	-795.255821	986.224894	1521.562814	-465.786664	1006.665231	1464.776761	-605.117488	882.938120	1552.763661	-609.946941	996.928619	1426.290812	-384.678438	1022.561744	1342.055745	-381.764294	965.424639	1325.414296	-327.776120	1000.500291	1201.296569	-268.770739	960.228455	1165.075332	-335.027796	873.556045	1470.623285	-871.483107	859.596860	1403.263822	-884.089044	766.378044	1431.472489	-859.995011	687.106863	1303.520746	-944.665809	647.618127	1303.838789	-869.478084	1088.912655	1244.514847	-319.865159	1168.989224	1301.762686	-469.493875	1211.989944	1269.743519	-420.073760	767.754534	1250.136753	-924.164901	890.536975	1177.368703	-814.729655	869.786016	1121.457084	-855.128543	505.760114	272.283962	-582.966306	
